<?xml version="1.0" encoding="UTF-8"?>
<svg id="Layer_1" data-name="Layer 1" xmlns="http://www.w3.org/2000/svg" viewBox="0 0 1007 168">
  <defs>
    <style>
      .cls-1 {
        fill: #ebebff;
        stroke-width: 0px;
      }
    </style>
  </defs>
  <path class="cls-1" d="m68.34,4.16l-20.81,136.65,4.04,2.48c11.59-2.48,21.63-6.73,30.12-12.73,8.49-6,15.53-13.14,21.12-21.43,5.59-8.28,9.78-17.39,12.58-27.33,2.79-9.94,4.19-19.98,4.19-30.12,0-14.49-3.21-27.84-9.63-40.06l30.44-10.25c4.14,6.42,7.3,13.82,9.47,22.21,2.17,8.39,3.26,17.45,3.26,27.17,0,16.15-2.9,31.32-8.7,45.5-5.8,14.18-13.62,26.55-23.45,37.11-9.84,10.56-21.17,18.9-34.01,25-12.84,6.1-26.3,9.16-40.37,9.16-10.36,0-18.01-2.59-22.98-7.76-4.97-5.17-7.45-12.32-7.45-21.43,0-2.28.1-4.55.31-6.83.2-2.28.51-4.86.93-7.76L31.69,31.18H.33L4.68,4.16h63.67Z"/>
  <path class="cls-1" d="m244.12,168.14c-21.95,0-38.46-5.79-49.53-17.39-11.08-11.59-16.61-28.67-16.61-51.24,0-14.7,2.22-28.11,6.68-40.22,4.45-12.11,10.66-22.52,18.63-31.21,7.97-8.7,17.49-15.47,28.57-20.34,11.07-4.86,23.34-7.3,36.8-7.3,8.07,0,15.53.93,22.36,2.8,6.83,1.86,12.78,4.61,17.86,8.23,5.07,3.62,9.06,8.18,11.96,13.67,2.9,5.49,4.35,11.75,4.35,18.79,0,6.01-1.3,12.11-3.88,18.32-2.59,6.21-7.92,11.91-15.99,17.08-8.07,5.18-19.57,9.53-34.47,13.04-14.91,3.52-34.58,5.7-59.01,6.52-.21,1.45-.31,2.75-.31,3.88v2.33c0,4.97.57,9.68,1.71,14.13,1.14,4.45,3.05,8.34,5.75,11.65,2.69,3.31,6.37,5.9,11.02,7.76,4.66,1.86,10.61,2.79,17.86,2.79,5.17,0,9.88-.57,14.13-1.71,4.24-1.14,8.28-2.95,12.11-5.44,3.83-2.48,7.66-5.74,11.49-9.78,3.83-4.04,7.92-9.05,12.27-15.06l21.74,13.97c-4.35,6.83-9.01,13-13.98,18.48-4.97,5.49-10.51,10.15-16.61,13.98-6.11,3.83-12.84,6.83-20.19,9.01-7.35,2.17-15.58,3.26-24.69,3.26Zm21.43-142.55c-13.67,0-24.85,4.04-33.54,12.11-8.7,8.07-14.39,20.4-17.08,36.96l-.62,3.42c17.39-.62,31.21-2.02,41.46-4.19s18.11-4.76,23.6-7.76c5.48-3,9.01-6.26,10.56-9.78,1.55-3.52,2.33-6.93,2.33-10.25,0-6-2.02-10.92-6.06-14.75-4.04-3.83-10.92-5.75-20.65-5.75Z"/>
  <path class="cls-1" d="m372.37,164.41l22.05-133.23h-41.3l4.66-27.02h74.53l-7.76,45.34h1.86c6-13.87,13.67-24.89,22.98-33.08,9.32-8.18,21.74-12.27,37.27-12.27h18.63l-5.59,33.23h-27.95c-8.9,0-16.2,1.19-21.89,3.57-5.7,2.38-10.71,6.26-15.06,11.65-2.07,2.48-4.92,6.52-8.54,12.11-3.62,5.59-6.06,12.11-7.3,19.56l-13.35,80.12h-33.23Z"/>
  <path class="cls-1" d="m511.19,164.41l26.71-160.25h33.23l-6.52,37.89h1.55c6-12.83,13.04-22.98,21.12-30.43,8.08-7.45,18.63-11.18,31.68-11.18,14.29,0,25.1,4.3,32.45,12.89,7.35,8.59,11.03,19.72,11.03,33.39,0,3.73-.16,7.61-.47,11.65s-.99,8.75-2.02,14.13l-15.22,91.93h-33.23l15.53-93.17c.41-2.9.83-5.95,1.24-9.16.41-3.21.62-6.16.62-8.85,0-7.25-1.81-13.35-5.43-18.32-3.62-4.97-9.58-7.45-17.86-7.45-6.21,0-11.75,1.45-16.62,4.35-4.87,2.9-9.37,6.83-13.51,11.8-2.07,2.48-5.02,6.83-8.85,13.04-3.83,6.21-6.47,13.56-7.92,22.05l-14.29,85.71h-33.23Z"/>
  <path class="cls-1" d="m790.69,126.52h-1.55c-6.01,12.84-13.04,22.98-21.12,30.44-8.07,7.45-18.63,11.18-31.68,11.18-14.29,0-25.11-4.29-32.45-12.89-7.35-8.59-11.03-19.72-11.03-33.39,0-3.73.16-7.61.47-11.65.31-4.04.98-8.74,2.02-14.13l15.22-91.93h33.23l-15.53,93.17c-.42,2.9-.83,5.95-1.24,9.16-.42,3.21-.62,6.16-.62,8.85,0,7.25,1.81,13.35,5.43,18.32,3.62,4.97,9.57,7.45,17.86,7.45,6.21,0,11.75-1.45,16.61-4.35,4.86-2.9,9.37-6.83,13.51-11.8,2.07-2.48,5.02-6.83,8.85-13.04,3.83-6.21,6.47-13.56,7.92-22.05l14.29-85.71h33.23l-26.71,160.25h-33.23l6.52-37.89Z"/>
  <path class="cls-1" d="m922.06,168.14c-15.74,0-29.4-2.44-40.99-7.3-11.6-4.86-20.6-11.96-27.02-21.27l21.12-18.63c11.38,14.49,27.84,21.74,49.38,21.74,12.21,0,21.79-2.17,28.73-6.52,6.93-4.35,10.4-10.56,10.4-18.63,0-6.21-1.92-10.51-5.75-12.89-3.83-2.38-8.65-4.09-14.44-5.12l-23.29-4.04c-6.01-1.03-11.75-2.48-17.24-4.35-5.49-1.86-10.3-4.4-14.44-7.61-4.14-3.21-7.51-7.3-10.09-12.27-2.59-4.97-3.88-11.07-3.88-18.32,0-8.7,1.81-16.3,5.43-22.83,3.62-6.52,8.59-12,14.91-16.46,6.31-4.45,13.71-7.76,22.21-9.94,8.49-2.17,17.7-3.26,27.64-3.26,14.29,0,26.65,2.13,37.11,6.37,10.45,4.25,18.68,9.99,24.69,17.24l-20.5,19.56c-3.11-4.35-8.18-8.38-15.22-12.11-7.04-3.73-16.36-5.59-27.95-5.59s-20.45,2.07-26.55,6.21c-6.11,4.14-9.16,9.94-9.16,17.39,0,6.42,2.02,10.77,6.06,13.04,4.04,2.28,8.95,3.94,14.75,4.97l23.29,4.35c5.79,1.04,11.38,2.44,16.77,4.19,5.38,1.76,10.2,4.14,14.44,7.14,4.24,3,7.66,6.94,10.25,11.8,2.59,4.87,3.88,10.92,3.88,18.17,0,8.49-1.76,16.15-5.28,22.98-3.52,6.83-8.54,12.63-15.06,17.39-6.52,4.76-14.39,8.38-23.6,10.87-9.21,2.48-19.41,3.73-30.59,3.73Z"/>
</svg>
